<?xml version="1.0" standalone="no"?>
<!DOCTYPE svg PUBLIC "-//W3C//DTD SVG 20010904//EN"
 "http://www.w3.org/TR/2001/REC-SVG-20010904/DTD/svg10.dtd">
<svg version="1.0" xmlns="http://www.w3.org/2000/svg"
 width="300.000000pt" height="300.000000pt" viewBox="0 0 300.000000 300.000000"
 preserveAspectRatio="xMidYMid meet">
<metadata>
Created by potrace 1.11, written by Peter Selinger 2001-2013
</metadata>
<g transform="translate(0.000000,300.000000) scale(0.100000,-0.100000)"
fill="#000000" stroke="none">
<path d="M2 2163 l3 -188 385 0 385 0 3 -158 2 -157 -37 -1 c-21 0 -149 -1
-285 -1 -220 -1 -248 -3 -249 -17 -1 -9 -2 -89 -3 -178 l-1 -163 30 -1 c17 0
146 -1 288 -1 l258 -1 -1 -76 c-1 -42 -1 -189 -1 -327 l1 -251 215 0 c212 0
215 0 215 21 1 44 1 1593 1 1639 l-1 47 -605 0 -605 0 2 -187z"/>
<path d="M1844 1498 l1 -853 578 -1 577 -1 0 188 0 189 -362 2 -362 3 0 463
c-1 254 1 468 4 475 4 9 90 12 360 12 l355 0 3 188 2 187 -578 0 -579 0 1
-852z"/>
<path d="M1276 1906 l0 -394 128 -209 c70 -114 132 -215 137 -223 5 -8 61
-100 124 -204 63 -105 115 -186 115 -180 0 5 0 191 0 413 l0 404 -247 394
c-136 216 -249 393 -252 393 -4 0 -6 -177 -5 -394z"/>
</g>
</svg>
